<?xml version="1.0" encoding="UTF-8"?>
<svg id="Layer_2" data-name="Layer 2" xmlns="http://www.w3.org/2000/svg" viewBox="0 0 310.99 81.84">
  <defs>
    <style>
      .cls-1 {
        fill: #fff;
      }
    </style>
  </defs>
  <g id="Layer_1-2" data-name="Layer 1">
    <g>
      <polygon class="cls-1" points="181 22.84 198.89 16.18 181 9.33 181 0 211.64 12.37 211.64 19.98 181 32.36 181 22.84"/>
      <path class="cls-1" d="M11.8,81.84c-6.47,0-11.8-3.24-11.8-10.47v-.38c0-8.75,7.61-11.8,16.94-11.8h4.38v-1.71c0-3.62-1.52-5.71-5.33-5.71-3.43,0-5.14,1.9-5.33,4.57H1.14c.76-7.99,7.04-11.8,15.42-11.8s14.85,3.62,14.85,12.56v23.98h-9.71v-4.19c-1.9,2.66-5.14,4.95-9.9,4.95ZM21.32,69.28v-3.43h-4c-4.95,0-7.42,1.33-7.42,4.57v.38c0,2.47,1.52,4.19,4.95,4.19,3.43-.19,6.47-2.09,6.47-5.71ZM54.05,81.84c-9.9,0-17.13-6.09-17.13-18.27v-.57c0-12.18,7.61-18.65,17.13-18.65,8.18,0,14.85,4.19,15.61,13.51h-9.52c-.57-3.43-2.47-5.71-5.9-5.71-4.19,0-7.23,3.43-7.23,10.47v1.14c0,7.23,2.66,10.47,7.23,10.47,3.43,0,5.9-2.47,6.47-6.47h9.14c-.57,8.37-6.09,14.08-15.8,14.08ZM91.36,81.84c-9.9,0-17.13-6.09-17.13-18.27v-.57c0-12.18,7.61-18.65,17.13-18.65,8.18,0,14.85,4.19,15.61,13.51h-9.52c-.57-3.43-2.47-5.71-5.9-5.71-4.19,0-7.23,3.43-7.23,10.47v1.14c0,7.23,2.66,10.47,7.23,10.47,3.43,0,5.9-2.47,6.47-6.47h9.14c-.57,8.37-6.09,14.08-15.8,14.08ZM128.85,81.84c-10.28,0-17.32-6.09-17.32-18.08v-.76c0-11.99,7.42-18.65,17.13-18.65,8.95,0,16.37,4.95,16.37,16.94v4.38h-23.41c.38,6.47,3.24,8.95,7.42,8.95,3.81,0,5.9-2.09,6.66-4.57h9.33c-1.14,6.66-6.85,11.8-16.18,11.8ZM121.81,59h13.32c-.19-5.33-2.66-7.61-6.66-7.61-3.05.19-5.9,1.9-6.66,7.61ZM151.12,45.3h10.09v5.33c1.71-3.43,5.33-6.09,10.85-6.09,6.47,0,10.85,4,10.85,12.56v23.98h-10.09v-22.46c0-4.19-1.71-6.09-5.33-6.09-3.43,0-6.28,2.09-6.28,6.66v21.89h-10.09v-35.78h0ZM201.36,34.45v10.85h6.85v7.42h-6.85v16.94c0,2.66,1.14,4,3.62,4,1.52,0,2.47-.19,3.43-.57v7.8c-1.14.38-3.24.76-5.71.76-7.8,0-11.42-3.62-11.42-10.85v-18.08h-4.19v-7.42h4.19v-6.66l10.09-4.19ZM245.9,81.08h-9.9v-5.33c-1.71,3.43-5.14,6.09-10.47,6.09-6.47,0-11.23-4-11.23-12.37v-24.17h10.09v22.84c0,4.19,1.71,6.09,5.14,6.09s6.28-2.28,6.28-6.66v-22.27h10.09v35.78ZM253.32,45.3h10.09v6.66c2.09-4.76,5.52-7.04,10.85-7.04v9.9c-6.85,0-10.85,2.09-10.85,7.99v18.46h-10.09v-35.97ZM294.62,81.84c-10.28,0-17.32-6.09-17.32-18.08v-.76c0-11.99,7.42-18.65,17.13-18.65,8.95,0,16.37,4.95,16.37,16.94v4.38h-23.22c.38,6.47,3.24,8.95,7.42,8.95,3.81,0,5.9-2.09,6.66-4.57h9.33c-1.52,6.66-7.04,11.8-16.37,11.8ZM287.39,59h13.51c-.19-5.33-2.66-7.61-6.66-7.61-3.05.19-5.9,1.9-6.85,7.61Z"/>
    </g>
  </g>
</svg>