<?xml version="1.0" encoding="UTF-8"?>
<svg id="Layer_2" data-name="Layer 2" xmlns="http://www.w3.org/2000/svg" viewBox="0 0 108 102.4">
  <defs>
    <style>
      .cls-1 {
        fill: #fff;
      }
    </style>
  </defs>
  <g id="Layer_1-2" data-name="Layer 1">
    <g>
      <path class="cls-1" d="M104.4,70.9c2,0,3.6,1.6,3.6,3.6,0,2.1-1.6,3.6-3.7,3.6s-3.7-1.6-3.7-3.6c.1-2,1.7-3.6,3.8-3.6h0ZM104.3,71.5c-1.6,0-2.9,1.3-2.9,3s1.2,3,2.9,3c1.6,0,2.8-1.3,2.8-3s-1.1-3-2.8-3h0ZM103.7,76.5h-.7v-3.8c.4-.1.8-.1,1.3-.1.6,0,.9.1,1.2.3.2.2.4.5.4.8,0,.5-.3.8-.7.9h0c.3.1.5.4.6.9.1.6.2.8.3.9h-.7c-.1-.1-.2-.5-.3-1-.1-.4-.3-.6-.9-.6h-.5s0,1.7,0,1.7ZM103.7,74.4h.5c.5,0,1-.2,1-.6s-.2-.6-.9-.6h-.5v1.2h-.1Z"/>
      <path class="cls-1" d="M48.8,63.4c0,2-1.2,3.9-3.5,3.9-.8,0-1.6-.2-2.2-.5v-6.3c.6-.4,1.4-.7,2.4-.7,2.1,0,3.3,1.6,3.3,3.6M19.7,61.5h-2.7v5.1h1.7c1.6,0,2.7-.1,3.4-.4,1-.4,1.3-1.2,1.3-2.1,0-1.8-1.2-2.6-3.7-2.6M22.6,56.1c0-.7-.2-1.4-1-1.8-.7-.4-2-.5-3.2-.5h-1.4v4.7h2.4c1.9-.1,3.2-.8,3.2-2.4M89.9,66.2c0,.9.8,1.4,1.8,1.4.7,0,1.4-.3,2-.6v-2c-.5-.1-1.1-.2-1.5-.2-1.2,0-2.3.3-2.3,1.4M102.4,51.2c0,5.3-.8,10.3-2.3,15.1-.3.6-.8.9-1.3.9-.6,0-.9-.5-.9-1.1v-4.7c0-1.8-.5-3-1.6-3.9s-2.8-1.3-4.7-1.3c-2,0-3.7.5-4.9,1.1v3.7c1.1-.6,2.5-1.1,4.1-1.1,1,0,1.8.2,2.2.6.3.3.5.8.5,1.5v.5c-.8-.2-1.6-.3-2.4-.3-1.4,0-2.8.3-3.9,1-1,.7-1.7,1.8-1.7,3.4,0,1.4.6,2.6,1.6,3.3.9.6,2,.9,3.2.9,1.6,0,3-.5,3.9-1.2h.1c.8.8,1.9,1.1,3,1.1.4,0,.8,0,1.1-.1-7.6,18.6-26,31.8-47.4,31.8-28.1,0-51-22.9-51-51.2S22.9,0,51.2,0s51.2,22.9,51.2,51.2M59.3,44.5l5.1,1.6,1.6,8.5,1.6-8.5,5.1-1.6-5.1-1.6-1.6-5.2-1.6,5.1-5.1,1.7ZM27.9,64.3c0-2.5-1.3-4.2-3.9-5v-.1c1.9-.7,3.1-2,3.1-4.2,0-1.7-.7-3.1-2.3-4-1.4-.8-3.5-1.2-6.2-1.2h-6v20.6h6.1c2.2,0,3.9-.3,5.4-.8,2.5-.9,3.8-2.8,3.8-5.3M35,56.5h-4.3v14h4.3v-14ZM35.4,52.1c0-1.4-1.1-2.5-2.5-2.5s-2.5,1.1-2.5,2.5,1.1,2.5,2.5,2.5c1.3-.1,2.5-1.2,2.5-2.5M53.1,63.2c0-4.3-3.1-7-6.6-7-1.3,0-2.6.4-3.4,1h-.1v-8.3h-4.3v21.9l3.4-.6c1,.4,2.1.7,3.5.7,4.3-.1,7.5-3.2,7.5-7.7M60.1,48.8h-4.3v21.7h4.3v-21.7ZM68.1,56.5h-4.3v14h4.3v-14ZM83.3,65.7c-1.2.9-2.7,1.4-4.1,1.4-2.3,0-3.9-1.5-3.9-3.6s1.6-3.7,3.9-3.7c1.3,0,2.7.5,3.9,1.3v-4c-1.1-.6-2.6-.9-4.1-.9-4.4,0-8,2.9-8,7.3s3.3,7.3,7.8,7.3c1.6,0,3.2-.3,4.6-1.1v-4h-.1Z"/>
    </g>
  </g>
</svg>