<?xml version="1.0" encoding="UTF-8"?>
<svg id="Layer_2" data-name="Layer 2" xmlns="http://www.w3.org/2000/svg" viewBox="0 0 72.39 71.82">
  <defs>
    <style>
      .cls-1 {
        fill: #fff;
      }
    </style>
  </defs>
  <g id="Layer_1-2" data-name="Layer 1">
    <g>
      <path class="cls-1" d="M36.19,0C16.2,0,0,16.08,0,35.91s16.2,35.91,36.19,35.91,36.19-16.08,36.19-35.91S56.18,0,36.19,0ZM70.03,35.91c0,18.54-15.15,33.58-33.84,33.58S2.35,54.45,2.35,35.91,17.5,2.33,36.19,2.33s33.84,15.03,33.84,33.58Z"/>
      <path class="cls-1" d="M53.74,20.67c.49.52,1.2,1.37,1.6,1.88l7.33-4.62c-.37-.48-.95-1.2-1.38-1.71l-4.64,3.05-.32.27.24-.34,2.05-4.06-1.45-1.44-4.09,2.03-.34.23.27-.31,3.07-4.6c-.54-.46-1.06-.87-1.72-1.38l-4.65,7.26c.59.45,1.37,1.11,1.86,1.56l4.38-2.26.28-.2-.21.28-2.27,4.35h0ZM37.11,11.47l2-4.45.13-.39-.04.41.21,5.95c.7.07,1.43.16,2.14.28l-.33-8.81c-1-.11-2-.19-2.99-.23l-1.97,4.86-.07.36-.07-.36-1.97-4.86c-1,.04-1.99.12-2.99.23l-.33,8.81c.72-.12,1.44-.21,2.14-.28l.21-5.95-.04-.41.13.39,2,4.45s1.82,0,1.82,0ZM20.91,18.49c1.16-1.21,1.81-2.61.66-3.94-.63-.72-1.69-.88-2.57-.53l-.09.03.03-.08c.13-.34.21-1.44-.73-2.2-.46-.37-1.04-.51-1.62-.45-1.09.11-1.92.85-4.2,3.37-.69.76-1.69,1.96-2.29,2.74l6.25,5.89c2.07-2.28,2.92-3.12,4.55-4.83ZM12.75,17.05c1.26-1.53,2.6-2.92,3.2-3.47.19-.17.4-.35.65-.41.41-.11.84.18.93.6.1.42-.17.82-.47,1.15-.67.75-3.11,3.28-3.11,3.28l-1.21-1.15h0ZM15.2,19.35s2.38-2.5,3.16-3.29c.31-.32.51-.51.72-.61.27-.13.57-.16.84.02.26.18.39.48.32.78-.08.36-.37.7-.61.96l-3.15,3.35s-1.27-1.19-1.27-1.19Z"/>
      <path class="cls-1" d="M57.66,35.91h-21.46V14.61c11.86,0,21.46,9.53,21.46,21.3ZM36.19,35.91v21.3c-11.86,0-21.46-9.53-21.46-21.3,0,0,21.46,0,21.46,0Z"/>
    </g>
  </g>
</svg>