<?xml version="1.0" encoding="UTF-8"?>
<svg id="Layer_2" data-name="Layer 2" xmlns="http://www.w3.org/2000/svg" viewBox="0 0 504 421.7">
  <defs>
    <style>
      .cls-1 {
        fill: #fff;
      }
    </style>
  </defs>
  <g id="Layer_1-2" data-name="Layer 1">
    <g id="Layer_1-3" data-name="Layer 1">
      <g id="Nissan_Badge" data-name="Nissan Badge">
        <g>
          <path class="cls-1" d="M293.7,227.7c-.4.1-2,.1-2.7.1h-51.6v12h52.5c.4,0,3.5,0,4.1-.1,10.7-1,15.6-9.9,15.6-17.7s-5.1-16.6-14.8-17.5c-1.9-.2-3.5-.2-4.2-.2h-34.3c-1.5,0-3.2-.1-3.8-.3-2.7-.7-3.7-3.1-3.7-5.1,0-1.8,1-4.2,3.8-5,.8-.2,1.7-.3,3.6-.3h49.5v-11.8h-50.3c-2.1,0-3.7.1-5,.3-8.6,1.2-14.6,8.1-14.6,16.9,0,7.2,4.5,15.6,14.4,17,1.8.2,4.3.2,5.4.2h33.4c.6,0,2.1,0,2.4.1,3.8.5,5.1,3.3,5.1,5.8s-1.5,5-4.8,5.6Z"/>
          <path class="cls-1" d="M195.9,227.7c-.4.1-2,.1-2.6.1h-51.7v12h52.5c.4,0,3.5,0,4.1-.1,10.7-1,15.6-9.9,15.6-17.7s-5.1-16.6-14.8-17.5c-1.9-.2-3.5-.2-4.2-.2h-34.3c-1.5,0-3.2-.1-3.8-.3-2.7-.7-3.7-3.1-3.7-5.1,0-1.8,1-4.2,3.8-5,.8-.2,1.7-.3,3.6-.3h49.5v-11.8h-50.3c-2.1,0-3.7.1-5,.3-8.6,1.2-14.6,8.1-14.6,16.9,0,7.2,4.5,15.6,14.4,17,1.8.2,4.3.2,5.4.2h33.4c.6,0,2.1,0,2.4.1,3.8.5,5.1,3.3,5.1,5.8,0,2.4-1.4,5-4.8,5.6Z"/>
          <rect class="cls-1" x="101.7" y="181.4" width="13" height="58.7"/>
          <polygon class="cls-1" points="73 240.1 73 181.4 60 181.4 60 225.2 16.7 181.4 0 181.4 0 240.1 13 240.1 13 196.1 56.6 240.1 73 240.1"/>
          <polygon class="cls-1" points="491.1 181.4 491.1 225.2 447.8 181.4 431.1 181.4 431.1 240.1 444.1 240.1 444.1 196.1 487.6 240.1 504 240.1 504 181.4 491.1 181.4"/>
          <path class="cls-1" d="M363.4,181.4l-36.6,58.7h15.8l6.5-10.5h42.7l6.5,10.5h15.7l-36.6-58.7h-14ZM385.1,218.5h-29.3l14.7-23.6,14.6,23.6Z"/>
          <path class="cls-1" d="M72.3,148.1C98.5,71.6,170.7,20.2,252.1,20.2s153.7,51.4,179.8,127.9l.2.6h57.3v-6.9l-23.8-2.8c-14.7-1.7-17.8-8.2-21.8-16.4l-1-2C408.4,47.4,333.5,0,252.1,0S95.8,47.4,61.4,120.8l-1,2c-4,8.2-7.1,14.7-21.8,16.4l-23.8,2.8v6.9h57.2l.3-.8Z"/>
          <path class="cls-1" d="M432.1,272.9l-.2.6c-26.2,76.5-98.4,127.8-179.8,127.8h0c-81.4,0-153.7-51.4-179.8-127.9l-.2-.6H14.9v6.9l23.8,2.8c14.7,1.7,17.8,8.2,21.8,16.4l1,2c34.4,73.4,109.3,120.8,190.7,120.8h0c81.4,0,156.3-47.4,190.7-120.7l1-2c4-8.2,7.1-14.7,21.8-16.4l23.8-2.8v-6.9h-57.4Z"/>
        </g>
      </g>
    </g>
  </g>
</svg>