<?xml version="1.0" encoding="UTF-8"?>
<svg id="Layer_2" data-name="Layer 2" xmlns="http://www.w3.org/2000/svg" viewBox="0 0 399.99 49.23">
  <defs>
    <style>
      .cls-1 {
        fill: #fff;
      }
    </style>
  </defs>
  <g id="Layer_1-2" data-name="Layer 1">
    <g id="Layer_2-2" data-name="Layer 2">
      <g id="Ebene_1" data-name="Ebene 1">
        <path class="cls-1" d="M0,29.91h4.38v1.37c0,3.44,1.8,4.85,6.62,4.85h10.06c7.05,0,9.29-.27,9.29-4.41v-.23c0-2.67-.77-4.11-6.38-4.11h-14.51c-6.62-.03-9.06-2.17-9.06-7.45v-1.6c0-4.55,2.57-7.05,14.14-7.05h7.19c10.59,0,12.07,3.04,12.07,6.99v1.47h-4.38v-.27c0-4.28-2.84-4.38-7.95-4.38h-8.19c-6.72.03-8.19.67-8.19,3.81v1.04c0,2.31.77,3.61,5.68,3.61h12.37c7.05,0,11.86.7,11.86,8.22v.1c.03,7.82-7.19,8.09-12.9,8.09h-8.66c-6.92,0-13.44,0-13.44-8.39v-1.64Z"/>
        <path class="cls-1" d="M41.38,11.66h4.38v4.41h.1c1.37-3.38,5.18-4.85,9.32-4.85h8.92c6.65,0,12.87,2.14,12.87,11.73v4.91c0,8.99-3.98,12.07-13.64,12.07h-8.92c-4.98,0-7.19-1.24-8.19-4.11h-.1v13.4h-4.75V11.66ZM72.26,23.03c0-5.41-1.74-7.95-8.36-7.95h-9.32c-6.18,0-8.52,3.21-8.52,8.02v5.31c0,6.65,4.11,7.75,9.12,7.75h8.36c5.48,0,8.72-1.2,8.72-7.65v-5.48Z"/>
        <path class="cls-1" d="M136.46,11.66h4.38v4.04h.1c1.74-3.61,5.31-4.48,8.52-4.48h4.41c8.79,0,11.66,2.84,11.66,9.66v3.34h-4.34v-1.2c0-6.85-1.44-7.95-9.76-7.95h-2.91c-4.98,0-7.35,3.18-7.35,6.75v17.68h-4.68l-.03-27.84Z"/>
        <path class="cls-1" d="M175.06,15.51h-6.12v-3.84h6.12v-6.58h4.68v6.58h18.65v3.81h-18.62v13.87c0,5.18,1.8,6.78,6.92,6.78h1.47c6.22,0,7.22-1.3,7.22-7.15v-2.07h3.81v3.04c0,5.58-.53,9.99-10.7,9.99h-2.57c-8.82,0-10.86-4.24-10.86-8.79v-15.64Z"/>
        <path class="cls-1" d="M205.18,11.66h9.83v5.28h.1c1.2-4.41,5.45-5.75,10.19-5.75,7.65,0,10.63,3.28,10.63,11,0,.7-.07,1.47-.1,2.47h-9.06c0-3.54-.84-5.25-5.01-5.25-3.61,0-6.12,1.37-6.12,4.68v15.41h-10.46V11.66Z"/>
        <path class="cls-1" d="M239.84,29.75c0-7.55,5.25-8.02,15.41-8.02,5.75,0,8.92.17,10.93,2.24v-2.47c0-2.74-.8-3.71-4.91-3.71h-6.18c-3.04,0-3.91.27-4.04,2.24h-10.16c0-7.55,3.71-8.79,12.57-8.79h12.17c7.19,0,11.03,3.44,11.03,9.99v18.28h-9.93v-3.14c-2.91,3.01-3.98,3.61-9.22,3.61h-7.15c-6.38.07-10.46-1.37-10.46-7.92v-2.31h-.03ZM258.52,33.39c7.22,0,7.85-1.1,7.85-2.94,0-2.07-.6-2.84-6.38-2.84h-4.61c-4.41,0-5.35.97-5.35,3.28,0,1.8,1.44,2.51,5.48,2.51h3.01Z"/>
        <path class="cls-1" d="M281.91,23.09c0-7.09,1.64-11.83,14.91-11.83h3.11c4.31,0,8.72,1.2,9.39,5.58h.1V0h10.46v39.5h-9.83v-5.15h-.1c-1.14,3.44-3.78,5.58-10.09,5.58h-3.04c-13.27,0-14.91-4.75-14.91-11.83v-5.01ZM292.07,27.21c0,3.11.5,4.85,5.48,4.85h6.18c4.11,0,6.32-.94,6.32-5.11v-2.74c0-4.21-2.17-5.11-6.32-5.11h-6.18c-5.01,0-5.48,1.74-5.48,4.85v3.28Z"/>
        <path class="cls-1" d="M325.73,29.75c0-7.55,5.25-8.02,15.41-8.02,5.72,0,8.92.17,10.93,2.24v-2.47c0-2.74-.8-3.71-4.91-3.71h-6.18c-3.07,0-3.94.27-4.04,2.24h-10.13c0-7.55,3.71-8.79,12.57-8.79h12.17c7.22,0,11.03,3.44,11.03,9.99v18.28h-9.93v-3.14c-2.87,3.01-3.98,3.61-9.22,3.61h-7.19c-6.38.07-10.49-1.37-10.49-7.92v-2.31ZM344.41,33.39c7.19,0,7.85-1.1,7.85-2.94,0-2.07-.6-2.84-6.38-2.84h-4.65c-4.41,0-5.35.97-5.35,3.28,0,1.8,1.44,2.51,5.48,2.51h3.04Z"/>
        <path class="cls-1" d="M369.21,11.66h9.83v5.28h.1c1.2-4.41,5.45-5.75,10.19-5.75,7.65,0,10.66,3.28,10.66,11,0,.7-.07,1.47-.1,2.47h-9.06c0-3.54-.8-5.25-5.01-5.25-3.61,0-6.12,1.37-6.12,4.68v15.41h-10.49V11.66Z"/>
        <path class="cls-1" d="M111.19,15.01h-9.59c-5.48,0-9.29,1.24-9.29,7.75v5.58c0,6.48,3.81,7.75,9.29,7.75h9.59c5.45,0,9.29-1.27,9.29-7.75v-5.58c-.03-6.52-3.84-7.75-9.29-7.75Z"/>
        <path class="cls-1" d="M110.69,7.19h-8.59c-11.36,0-19.69,2.74-19.69,14.44v7.82c0,11.73,8.32,14.4,19.69,14.4h8.59c11.36,0,19.69-2.74,19.69-14.4v-7.82c0-11.73-8.29-14.44-19.69-14.44ZM125.17,28.61c0,9.16-6.48,11.3-15.41,11.3h-6.72c-8.92,0-15.41-2.14-15.41-11.3v-6.12c0-9.16,6.52-11.3,15.41-11.3h6.72c8.92,0,15.41,2.14,15.41,11.3v6.12Z"/>
      </g>
    </g>
  </g>
</svg>