<?xml version="1.0" encoding="UTF-8"?>
<svg id="Layer_2" data-name="Layer 2" xmlns="http://www.w3.org/2000/svg" viewBox="0 0 315.04 62.47">
  <defs>
    <style>
      .cls-1 {
        fill: #fff;
      }
    </style>
  </defs>
  <g id="Layer_1-2" data-name="Layer 1">
    <g>
      <path class="cls-1" d="M275.39,11.58c-7.24,0-11.77,4.02-13.95,12.78l-1.34,5.33c-2.18,8.75.31,12.88,7.55,12.88h15.23c2.31,0,3.42,1.21,2.95,3.12l-.75,3.02c-.48,1.91-2.19,3.12-4.5,3.12h-25.68l-1.86,7.44h34.91c8.05,0,12.95-3.52,14.71-10.56l2.57-10.26c1.76-7.04-1.39-10.56-9.44-10.56h-14.53c-2.11,0-2.89-.91-2.42-2.82l.8-3.23c.48-1.91,1.71-2.82,3.82-2.82h26.49l1.86-7.44h-36.42Z"/>
      <path class="cls-1" d="M128.7,11.58c-7.25,0-11.77,4.02-13.95,12.78l-1.34,5.33c-2.18,8.75.31,12.88,7.56,12.88h15.23c2.32,0,3.42,1.21,2.95,3.12l-.75,3.02c-.48,1.91-2.19,3.12-4.5,3.12h-25.68l-1.86,7.44h34.91c8.05,0,12.95-3.52,14.71-10.56l2.57-10.26c1.76-7.04-1.39-10.56-9.44-10.56h-14.53c-2.11,0-2.9-.91-2.42-2.82l.79-3.23c.48-1.91,1.71-2.82,3.82-2.82h26.49l1.85-7.44h-36.42Z"/>
      <path class="cls-1" d="M173.34,10.03l-8.94,35.85c-2.31,9.26,1.09,13.38,8.13,13.38h18.23l1.85-7.44h-7.39c-3.12,0-4.1-.9-3.12-4.83l6.98-27.97h10l1.86-7.44h-10l2.89-11.58-20.49,10.03Z"/>
      <polygon class="cls-1" points="27.71 59.27 64.08 1.54 54.26 1.54 26.33 47.49 26.23 47.49 20.47 1.54 0 1.54 8.05 59.27 27.71 59.27"/>
      <path class="cls-1" d="M75.65,22.44c.63-2.52,1.56-3.42,3.87-3.42h7.31c2.32,0,3.42,1.21,2.94,3.12l-3.13,12.57h-14.05l3.06-12.27ZM72.25,11.58c-8.05,0-12.85,3.92-15.03,12.68l-5.57,22.34c-2.18,8.75.66,12.68,8.71,12.68h38.15l1.86-7.44h-28.31c-2.32,0-3.42-1.21-2.95-3.12l1.63-6.54h32.04l4.46-17.91c2.18-8.75-.66-12.68-8.71-12.68h-26.27Z"/>
      <path class="cls-1" d="M215.8,48.7l2.56-10.26c.48-1.91,2.19-3.12,4.5-3.12h10.32l-4.11,16.49h-10.33c-2.31,0-3.42-1.21-2.95-3.12M208.7,11.58l-1.85,7.44h26.68c2.32,0,3.42,1.21,2.95,3.12l-1.44,5.74h-19.95c-8.05,0-12.95,3.52-14.71,10.56l-2.57,10.26c-1.76,7.04,1.39,10.56,9.44,10.56h37.95l8.74-35.01c2.18-8.75-.66-12.68-8.71-12.68h-36.52Z"/>
      <rect class="cls-1" x="303.07" y="50.48" width="10.12" height="10.14" transform="translate(13.51 161.51) rotate(-30)"/>
    </g>
  </g>
</svg>