<svg xmlns="http://www.w3.org/2000/svg" viewBox="0 0 500 400" preserveAspectRatio="xMidYMid meet">
  <rect width="500" height="400" fill="#EEF0F4"/>
  <!-- Construction grid -->
  <g stroke="#0A1E3F" stroke-width="0.5" opacity="0.18" fill="none">
    <path d="M0 100 H500 M0 200 H500 M0 300 H500 M100 0 V400 M200 0 V400 M250 0 V400 M300 0 V400 M400 0 V400"/>
  </g>
  <!-- Construction circles -->
  <g stroke="#1A73E8" stroke-width="1" fill="none" stroke-dasharray="3 3" opacity="0.7">
    <circle cx="250" cy="200" r="80"/>
    <circle cx="250" cy="200" r="56"/>
  </g>
  <!-- Mark with construction overlay -->
  <g>
    <rect x="190" y="140" width="120" height="120" fill="none" stroke="#0A1E3F" stroke-width="6"/>
    <path d="M222 236 L222 164 L250 208 L278 164 L278 236" fill="#0A1E3F"/>
  </g>
  <!-- Tick rulers -->
  <g stroke="#0A1E3F" stroke-width="1" opacity="0.55">
    <path d="M40 200 H80 M420 200 H460 M250 40 V80 M250 320 V360"/>
    <path d="M40 195 V205 M460 195 V205 M245 40 H255 M245 360 H255"/>
  </g>
  <!-- Labels -->
  <g font-family="ui-monospace, Menlo, Consolas, monospace" fill="#0A1E3F">
    <text x="60" y="190" font-size="9" letter-spacing="1.5" opacity="0.55" text-anchor="middle">120u</text>
    <text x="36" y="38" font-size="11" letter-spacing="2" opacity="0.5">CONSTRUCTION</text>
    <text x="464" y="384" font-size="9" letter-spacing="1.5" opacity="0.5" text-anchor="end">GRID — 12 / 1.5×</text>
  </g>
</svg>
