<svg xmlns="http://www.w3.org/2000/svg" viewBox="0 0 1600 700" preserveAspectRatio="xMidYMid slice">
  <rect width="1600" height="700" fill="#F5F5F2"/>
  <!-- Top site nav -->
  <rect x="0" y="0" width="1600" height="56" fill="#FFFFFF"/>
  <rect x="0" y="56" width="1600" height="1" fill="#0A1E3F" fill-opacity="0.08"/>
  <g transform="translate(48 16)">
    <rect x="0" y="0" width="20" height="20" fill="none" stroke="#0A1E3F" stroke-width="2.5"/>
    <path d="M5 16 L5 5 L10 12 L15 5 L15 16" fill="#0A1E3F"/>
    <text x="32" y="16" font-family="ui-sans-serif, system-ui, sans-serif" font-size="13" font-weight="800" fill="#0A1E3F" letter-spacing="-0.4">MARK<tspan fill="#1A73E8">.</tspan></text>
  </g>
  <g font-family="ui-monospace, Menlo, Consolas, monospace" font-size="9" letter-spacing="1.5" fill="#0A1E3F" opacity="0.55" transform="translate(680 32)">
    <text x="0">CONFIGURE</text>
    <text x="100">MODELS</text>
    <text x="180">DEALERS</text>
    <text x="260">SUPPORT</text>
  </g>
  <rect x="1480" y="14" width="80" height="28" fill="#0A1E3F"/>
  <text x="1520" y="33" text-anchor="middle" font-family="ui-monospace, Menlo, Consolas, monospace" font-size="9" letter-spacing="1.5" fill="#F5F5F2">SIGN IN</text>
  <!-- Hero -->
  <rect x="0" y="56" width="1600" height="500" fill="#0A1E3F"/>
  <g stroke="#1A73E8" stroke-width="1" opacity="0.12" fill="none">
    <path d="M0 156 H1600 M0 256 H1600 M0 356 H1600 M0 456 H1600"/>
    <path d="M200 56 V556 M400 56 V556 M600 56 V556 M800 56 V556 M1000 56 V556 M1200 56 V556 M1400 56 V556"/>
  </g>
  <g transform="translate(80 180)">
    <text font-family="ui-monospace, Menlo, Consolas, monospace" font-size="11" letter-spacing="3" fill="#1A73E8">— FLAGSHIP CONFIGURATOR</text>
    <text y="80" font-family="ui-sans-serif, system-ui, sans-serif" font-size="80" font-weight="800" letter-spacing="-3" fill="#F5F5F2">Build it. Drive it.</text>
    <text y="160" font-family="ui-sans-serif, system-ui, sans-serif" font-size="80" font-weight="800" letter-spacing="-3" fill="#1A73E8">Own it.</text>
    <g transform="translate(0 220)">
      <rect x="0" y="0" width="180" height="46" fill="#F5F5F2"/>
      <text x="90" y="29" text-anchor="middle" font-family="ui-monospace, Menlo, Consolas, monospace" font-size="11" letter-spacing="2" fill="#0A1E3F">CONFIGURE →</text>
      <rect x="200" y="0" width="180" height="46" fill="none" stroke="#F5F5F2" stroke-width="1.5"/>
      <text x="290" y="29" text-anchor="middle" font-family="ui-monospace, Menlo, Consolas, monospace" font-size="11" letter-spacing="2" fill="#F5F5F2">EXPLORE</text>
    </g>
  </g>
  <!-- Vehicle silhouette right -->
  <g transform="translate(880 220)" opacity="0.95">
    <ellipse cx="320" cy="240" rx="320" ry="14" fill="#000" opacity="0.4"/>
    <path d="M0 200 L60 140 L180 110 L420 100 L520 110 L580 140 L620 180 L600 220 L20 220 Z" fill="#F5F5F2"/>
    <path d="M120 140 L200 116 L380 110 L460 130 Z" fill="#0A1E3F"/>
    <circle cx="120" cy="220" r="42" fill="#0A0A0A"/>
    <circle cx="120" cy="220" r="18" fill="#1A73E8"/>
    <circle cx="500" cy="220" r="42" fill="#0A0A0A"/>
    <circle cx="500" cy="220" r="18" fill="#1A73E8"/>
    <ellipse cx="640" cy="180" rx="40" ry="8" fill="#1A73E8" opacity="0.5"/>
  </g>
  <!-- Featured tags strip (bottom) -->
  <rect x="0" y="556" width="1600" height="144" fill="#FFFFFF"/>
  <text x="80" y="600" font-family="ui-monospace, Menlo, Consolas, monospace" font-size="11" letter-spacing="2" fill="#0A1E3F" opacity="0.55">FEATURED MODELS</text>
  <g transform="translate(80 640)" font-family="ui-sans-serif, system-ui, sans-serif">
    <text font-size="22" font-weight="700" fill="#0A1E3F" letter-spacing="-0.5">Sedan / M Sport</text>
    <text x="260" font-size="22" font-weight="700" fill="#0A1E3F" opacity="0.55" letter-spacing="-0.5">SUV / Hybrid</text>
    <text x="480" font-size="22" font-weight="700" fill="#0A1E3F" opacity="0.55" letter-spacing="-0.5">Coupé / Edition</text>
    <text x="720" font-size="22" font-weight="700" fill="#0A1E3F" opacity="0.55" letter-spacing="-0.5">Wagon / Touring</text>
  </g>
  <text x="1520" y="654" text-anchor="end" font-family="ui-monospace, Menlo, Consolas, monospace" font-size="11" letter-spacing="2" fill="#1A73E8">VIEW ALL →</text>
</svg>
