<?xml version="1.0" encoding="UTF-8"?>
<!-- Generator: Adobe Illustrator 26.5.0, SVG Export Plug-In . SVG Version: 6.00 Build 0)  -->
<svg width="400" height="49.231" version="1.1" viewBox="0 0 400 49.231" xml:space="preserve" xmlns="http://www.w3.org/2000/svg">
<style type="text/css">
	.st0{fill:#FF0000;}
	.st1{fill:#FFFFFF;}
</style>

	<g id="SR_White-Red_Logo_00000031174674685003853960000009264175709868450712_" transform="scale(.33422)">
		<g id="Layer_2_00000005241932733560260430000015068534292634674355_">
			<g id="Ebene_1_00000085209184023779666070000011557955014159639951_">
				<path d="m0 89.5h13.1v4.1c0 10.3 5.4 14.5 19.8 14.5h30.1c21.1 0 27.8-0.8 27.8-13.2v-0.7c0-8-2.3-12.3-19.1-12.3h-43.4c-19.8-0.1-27.1-6.5-27.1-22.3v-4.8c0-13.6 7.7-21.1 42.3-21.1h21.5c31.7 0 36.1 9.1 36.1 20.9v4.4h-13.1v-0.8c0-12.8-8.5-13.1-23.8-13.1h-24.5c-20.1 0.1-24.5 2-24.5 11.4v3.1c0 6.9 2.3 10.8 17 10.8h37c21.1 0 35.5 2.1 35.5 24.6v0.3c0.1 23.4-21.5 24.2-38.6 24.2h-25.9c-20.7 0-40.2 0-40.2-25.1z"/>
				<path d="m123.8 34.9h13.1v13.2h0.3c4.1-10.1 15.5-14.5 27.9-14.5h26.7c19.9 0 38.5 6.4 38.5 35.1v14.7c0 26.9-11.9 36.1-40.8 36.1h-26.7c-14.9 0-21.5-3.7-24.5-12.3h-0.3v40.1h-14.2zm92.4 34c0-16.2-5.2-23.8-25-23.8h-27.9c-18.5 0-25.5 9.6-25.5 24v15.9c0 19.9 12.3 23.2 27.3 23.2h25c16.4 0 26.1-3.6 26.1-22.9z"/>
				<path d="m408.3 34.9h13.1v12.1h0.3c5.2-10.8 15.9-13.4 25.5-13.4h13.2c26.3 0 34.9 8.5 34.9 28.9v10h-13v-3.6c0-20.5-4.3-23.8-29.2-23.8h-8.7c-14.9 0-22 9.5-22 20.2v52.9h-14z"/>
				<path d="m523.8 46.4h-18.3v-11.5h18.3v-19.7h14v19.7h55.8v11.4h-55.7v41.5c0 15.5 5.4 20.3 20.7 20.3h4.4c18.6 0 21.6-3.9 21.6-21.4v-6.2h11.4v9.1c0 16.7-1.6 29.9-32 29.9h-7.7c-26.4 0-32.5-12.7-32.5-26.3z"/>
				<path d="m613.9 34.9h29.4v15.8h0.3c3.6-13.2 16.3-17.2 30.5-17.2 22.9 0 31.8 9.8 31.8 32.9 0 2.1-0.2 4.4-0.3 7.4h-27.1c0-10.6-2.5-15.7-15-15.7-10.8 0-18.3 4.1-18.3 14v46.1h-31.3z"/>
				<path d="m717.6 89c0-22.6 15.7-24 46.1-24 17.2 0 26.7 0.5 32.7 6.7v-7.4c0-8.2-2.4-11.1-14.7-11.1h-18.5c-9.1 0-11.7 0.8-12.1 6.7h-30.4c0-22.6 11.1-26.3 37.6-26.3h36.4c21.5 0 33 10.3 33 29.9v54.7h-29.7v-9.4c-8.7 9-11.9 10.8-27.6 10.8h-21.4c-19.1 0.2-31.3-4.1-31.3-23.7v-6.9zm55.9 10.9c21.6 0 23.5-3.3 23.5-8.8 0-6.2-1.8-8.5-19.1-8.5h-13.8c-13.2 0-16 2.9-16 9.8 0 5.4 4.3 7.5 16.4 7.5z"/>
				<path d="m843.5 69.1c0-21.2 4.9-35.4 44.6-35.4h9.3c12.9 0 26.1 3.6 28.1 16.7h0.3v-50.4h31.3v118.2h-29.4v-15.4h-0.3c-3.4 10.3-11.3 16.7-30.2 16.7h-9.1c-39.7 0-44.6-14.2-44.6-35.4zm30.4 12.3c0 9.3 1.5 14.5 16.4 14.5h18.5c12.3 0 18.9-2.8 18.9-15.3v-8.2c0-12.6-6.5-15.3-18.9-15.3h-18.5c-15 0-16.4 5.2-16.4 14.5z"/>
				<path d="m974.6 89c0-22.6 15.7-24 46.1-24 17.1 0 26.7 0.5 32.7 6.7v-7.4c0-8.2-2.4-11.1-14.7-11.1h-18.5c-9.2 0-11.8 0.8-12.1 6.7h-30.3c0-22.6 11.1-26.3 37.6-26.3h36.4c21.6 0 33 10.3 33 29.9v54.7h-29.7v-9.4c-8.6 9-11.9 10.8-27.6 10.8h-21.5c-19.1 0.2-31.4-4.1-31.4-23.7zm55.9 10.9c21.5 0 23.5-3.3 23.5-8.8 0-6.2-1.8-8.5-19.1-8.5h-13.9c-13.2 0-16 2.9-16 9.8 0 5.4 4.3 7.5 16.4 7.5z"/>
				<path d="m1104.7 34.9h29.4v15.8h0.3c3.6-13.2 16.3-17.2 30.5-17.2 22.9 0 31.9 9.8 31.9 32.9 0 2.1-0.2 4.4-0.3 7.4h-27.1c0-10.6-2.4-15.7-15-15.7-10.8 0-18.3 4.1-18.3 14v46.1h-31.4z"/>
				<path class="st0" d="m332.7 44.9h-28.7c-16.4 0-27.8 3.7-27.8 23.2v16.7c0 19.4 11.4 23.2 27.8 23.2h28.7c16.3 0 27.8-3.8 27.8-23.2v-16.7c-0.1-19.5-11.5-23.2-27.8-23.2z"/>
				<path class="st0" d="m331.2 21.5h-25.7c-34 0-58.9 8.2-58.9 43.2v23.4c0 35.1 24.9 43.1 58.9 43.1h25.7c34 0 58.9-8.2 58.9-43.1v-23.4c0-35.1-24.8-43.2-58.9-43.2zm43.3 64.1c0 27.4-19.4 33.8-46.1 33.8h-20.1c-26.7 0-46.1-6.4-46.1-33.8v-18.3c0-27.4 19.5-33.8 46.1-33.8h20.1c26.7 0 46.1 6.4 46.1 33.8z"/>
			</g>
		</g>
	</g>
	

</svg>
